<svg xmlns="http://www.w3.org/2000/svg" viewBox="0 0 48 48">
  <rect x="2" y="2" width="44" height="44" rx="12" fill="#463C97"/>
  <path d="M24 14c-3-2.2-6.4-2.6-9.5-2.1-.9.15-1.5.9-1.5 1.8v16.1c0 1.1 1 1.9 2.1 1.7 2.7-.45 5.7-.1 8.4 1.6 2.7-1.7 5.7-2.05 8.4-1.6 1.1.2 2.1-.6 2.1-1.7V13.7c0-.9-.6-1.65-1.5-1.8-3.1-.5-6.5-.1-9.5 2.1Z" fill="#FFFFFF"/>
  <path d="M24 14v18" stroke="#463C97" stroke-width="1.4"/>
  <path d="M33 10.5 L33.9 13.1 L36.5 14 L33.9 14.9 L33 17.5 L32.1 14.9 L29.5 14 L32.1 13.1 Z" fill="#D4A017"/>
</svg>
